<svg width="19" height="19" viewBox="0 0 19 19" fill="none" xmlns="http://www.w3.org/2000/svg">
<g clip-path="url(#clip0_84_1247)">
<path d="M8.03582 16C9.7474 15.9996 11.4097 15.4054 12.7579 14.312L16.9969 18.708L18.3604 17.294L14.1214 12.898C15.1764 11.4997 15.7497 9.77544 15.7501 8C15.7501 3.589 12.2893 0 8.03582 0C3.78235 0 0.321533 3.589 0.321533 8C0.321533 12.411 3.78235 16 8.03582 16ZM8.03582 2C11.2266 2 13.8215 4.691 13.8215 8C13.8215 11.309 11.2266 14 8.03582 14C4.845 14 2.2501 11.309 2.2501 8C2.2501 4.691 4.845 2 8.03582 2Z" fill="black"/>
</g>
<defs>
<clipPath id="clip0_84_1247">
<rect width="18.3214" height="19" fill="white" transform="translate(0.321533)"/>
</clipPath>
</defs>
</svg>
