<svg width="174" height="41" viewBox="0 0 174 41" fill="none" xmlns="http://www.w3.org/2000/svg">
<path d="M18.479 12.4111C17.0581 13.2168 16.3477 13.627 16.3477 13.6416C15.8496 12.499 15.1538 11.6787 14.2603 11.1807C13.3667 10.668 12.1875 10.4116 10.7227 10.4116C8.90625 10.4116 7.5293 10.7412 6.5918 11.4004C5.6543 12.0596 5.18555 13.0337 5.18555 14.3228C5.18555 14.8354 5.28076 15.2896 5.47119 15.6851C5.67627 16.0806 5.93262 16.4102 6.24023 16.6738C6.5625 16.9229 6.99463 17.1572 7.53662 17.377C8.07861 17.582 8.59863 17.7432 9.09668 17.8604C9.60938 17.9775 10.2466 18.1094 11.0083 18.2559C13.5571 18.7246 15.4688 19.457 16.7432 20.4531C18.0322 21.4346 18.6768 22.8555 18.6768 24.7158C18.6768 26.9277 17.937 28.6196 16.4575 29.7915C14.978 30.9487 12.7515 31.5273 9.77783 31.5273C8.88428 31.5273 8.02002 31.4321 7.18506 31.2417C6.36475 31.0659 5.56641 30.7803 4.79004 30.3848C4.02832 29.9746 3.35449 29.4033 2.76855 28.6709C2.18262 27.9238 1.75049 27.0522 1.47217 26.0562L3.84521 25.0894C4.37256 26.5249 5.10498 27.5649 6.04248 28.2095C6.97998 28.854 8.32031 29.1763 10.0635 29.1763C13.916 29.1763 15.8423 27.8872 15.8423 25.3091C15.8423 23.9028 15.4028 22.9141 14.5239 22.3428C13.645 21.7568 11.792 21.1709 8.96484 20.585C8.11523 20.4092 7.39746 20.2334 6.81152 20.0576C6.24023 19.8672 5.63965 19.6108 5.00977 19.2886C4.39453 18.9663 3.89648 18.6001 3.51562 18.1899C3.14941 17.7651 2.8418 17.2231 2.59277 16.564C2.3584 15.9048 2.24121 15.1431 2.24121 14.2788C2.24121 12.3013 3.00293 10.7705 4.52637 9.68652C6.06445 8.60254 8.07129 8.06055 10.5469 8.06055C12.5391 8.06055 14.165 8.39014 15.4248 9.04932C16.6846 9.7085 17.7026 10.8291 18.479 12.4111ZM26.3232 18.1899V31H23.2031V8.52197H26.2134L26.3013 12.0815C27.1216 10.6753 28.1616 9.65723 29.4214 9.02734C30.6812 8.38281 32.0288 8.06055 33.4644 8.06055C35.1343 8.06055 36.4966 8.4707 37.5513 9.29102C38.606 10.1113 39.3384 11.2539 39.7485 12.7188C40.4956 11.1514 41.5503 9.98682 42.9126 9.2251C44.2896 8.44873 45.7617 8.06055 47.3291 8.06055C48.5303 8.06055 49.563 8.27295 50.4272 8.69775C51.3062 9.12256 51.9873 9.65723 52.4707 10.3018C52.9688 10.9316 53.3569 11.73 53.6353 12.6968C53.9282 13.6636 54.1113 14.5791 54.1846 15.4434C54.2725 16.293 54.3164 17.2598 54.3164 18.3438V31H51.1963V17.6626C51.1963 16.5347 51.123 15.5459 50.9766 14.6963C50.8447 13.8467 50.6104 13.085 50.2734 12.4111C49.9512 11.7373 49.4971 11.2246 48.9111 10.873C48.3252 10.5215 47.6147 10.3457 46.7798 10.3457C45.5347 10.3457 44.4067 10.7266 43.396 11.4883C42.3853 12.25 41.6162 13.2168 41.0889 14.3887C40.5615 15.5459 40.2979 16.7544 40.2979 18.0142V31H37.1777V17.6626C37.1777 15.3042 36.8481 13.4951 36.189 12.2354C35.5298 10.9756 34.4019 10.3457 32.8052 10.3457C31.5308 10.3457 30.3882 10.7412 29.3774 11.5322C28.3667 12.3086 27.605 13.29 27.0923 14.4766C26.5796 15.6484 26.3232 16.8862 26.3232 18.1899ZM73.3887 26.188V19.9038L71.2354 20.2334C70.0781 20.4092 69.1333 20.5703 68.4009 20.7168C67.6685 20.8486 66.9067 21.0171 66.1157 21.2222C65.3247 21.4126 64.7021 21.625 64.248 21.8594C63.7939 22.0791 63.3691 22.3501 62.9736 22.6724C62.5928 22.98 62.3218 23.3389 62.1606 23.749C61.9995 24.1592 61.9189 24.6353 61.9189 25.1772C61.9189 27.9897 63.3105 29.396 66.0938 29.396C68.4229 29.396 70.8545 28.3267 73.3887 26.188ZM73.938 31L73.5645 28.4512C71.0596 30.502 68.3862 31.5273 65.5444 31.5273C63.6694 31.5273 62.1021 31.0146 60.8423 29.9893C59.5972 28.9492 58.9746 27.4917 58.9746 25.6167C58.9746 24.8257 59.0918 24.1152 59.3262 23.4854C59.5752 22.8408 59.8608 22.2988 60.1831 21.8594C60.5054 21.4053 61.0107 20.9951 61.6992 20.6289C62.3877 20.248 62.9883 19.9551 63.501 19.75C64.0283 19.5303 64.812 19.3105 65.8521 19.0908C66.8921 18.8564 67.7271 18.688 68.3569 18.5854C68.9868 18.4683 69.939 18.3145 71.2134 18.124L73.3887 17.7944V16.8716C73.3887 14.4253 72.9858 12.748 72.1802 11.8398C71.3745 10.917 70.0049 10.4556 68.0713 10.4556C66.8115 10.4556 65.625 10.6973 64.5117 11.1807C63.4131 11.6641 62.4976 12.3599 61.7651 13.2681C61.7651 13.2534 61.1426 12.6602 59.8975 11.4883C61.6992 9.20312 64.4824 8.06055 68.2471 8.06055C73.7549 8.06055 76.5088 10.7778 76.5088 16.2124V31H73.938ZM85.1221 8.52197V12.7407C85.5322 11.73 86.1255 10.895 86.9019 10.2358C87.6782 9.56201 88.4692 9.10791 89.2749 8.87354C90.0952 8.62451 90.9521 8.5 91.8457 8.5V11.3345C90.6299 11.3345 89.5752 11.5542 88.6816 11.9937C87.8027 12.4331 87.1143 13.041 86.6162 13.8174C86.1328 14.5938 85.7739 15.436 85.5396 16.3442C85.3198 17.2524 85.21 18.2412 85.21 19.3105V31H82.0898V8.52197H85.1221ZM105.293 28.2534L105.82 30.2969C104.722 31 103.433 31.3516 101.953 31.3516C100.02 31.3516 98.6133 30.7656 97.7344 29.5938C96.8701 28.4072 96.438 26.4956 96.438 23.8589V10.6973H93.0762V8.52197H96.6357V1.33691L99.5581 0.523926V8.52197H104.48V10.6973H99.5581V25.2651C99.5581 27.7554 100.569 29.0005 102.59 29.0005C103.264 29.0005 104.165 28.7515 105.293 28.2534Z" fill="black"/>
<path d="M124.871 12.4111C123.45 13.2168 122.739 13.627 122.739 13.6416C122.241 12.499 121.545 11.6787 120.652 11.1807C119.758 10.668 118.579 10.4116 117.114 10.4116C115.298 10.4116 113.921 10.7412 112.983 11.4004C112.046 12.0596 111.577 13.0337 111.577 14.3228C111.577 14.8354 111.672 15.2896 111.863 15.6851C112.068 16.0806 112.324 16.4102 112.632 16.6738C112.954 16.9229 113.386 17.1572 113.928 17.377C114.47 17.582 114.99 17.7432 115.488 17.8604C116.001 17.9775 116.638 18.1094 117.4 18.2559C119.949 18.7246 121.86 19.457 123.135 20.4531C124.424 21.4346 125.068 22.8555 125.068 24.7158C125.068 26.9277 124.329 28.6196 122.849 29.7915C121.37 30.9487 119.143 31.5273 116.169 31.5273C115.276 31.5273 114.412 31.4321 113.577 31.2417C112.756 31.0659 111.958 30.7803 111.182 30.3848C110.42 29.9746 109.746 29.4033 109.16 28.6709C108.574 27.9238 108.142 27.0522 107.864 26.0562L110.237 25.0894C110.764 26.5249 111.497 27.5649 112.434 28.2095C113.372 28.854 114.712 29.1763 116.455 29.1763C120.308 29.1763 122.234 27.8872 122.234 25.3091C122.234 23.9028 121.794 22.9141 120.916 22.3428C120.037 21.7568 118.184 21.1709 115.356 20.585C114.507 20.4092 113.789 20.2334 113.203 20.0576C112.632 19.8672 112.031 19.6108 111.401 19.2886C110.786 18.9663 110.288 18.6001 109.907 18.1899C109.541 17.7651 109.233 17.2231 108.984 16.564C108.75 15.9048 108.633 15.1431 108.633 14.2788C108.633 12.3013 109.395 10.7705 110.918 9.68652C112.456 8.60254 114.463 8.06055 116.938 8.06055C118.931 8.06055 120.557 8.39014 121.816 9.04932C123.076 9.7085 124.094 10.8291 124.871 12.4111ZM138.516 8.06055C140.039 8.06055 141.379 8.33154 142.537 8.87354C143.708 9.40088 144.646 10.1479 145.349 11.1147C146.052 12.0669 146.58 13.1729 146.931 14.4326C147.283 15.6924 147.458 17.084 147.458 18.6074C147.458 19.1055 147.437 19.5449 147.393 19.9258H132.034C132.034 21.2002 132.158 22.3867 132.407 23.4854C132.656 24.5693 133.03 25.5508 133.528 26.4297C134.041 27.2939 134.729 27.9751 135.593 28.4731C136.472 28.9712 137.483 29.2202 138.625 29.2202C140.105 29.2202 141.321 28.8833 142.273 28.2095C143.225 27.521 143.899 26.5615 144.294 25.3311L146.711 25.8584C146.375 27.1035 145.781 28.1655 144.932 29.0444C144.082 29.9087 143.13 30.5386 142.075 30.9341C141.021 31.3149 139.9 31.5127 138.713 31.5273H138.625C136.97 31.5273 135.498 31.2051 134.209 30.5605C132.935 29.916 131.909 29.0444 131.133 27.9458C130.371 26.8325 129.8 25.5874 129.419 24.2104C129.038 22.8188 128.848 21.332 128.848 19.75C128.848 16.249 129.697 13.4292 131.396 11.2905C133.11 9.13721 135.483 8.06055 138.516 8.06055ZM144.448 17.8823C144.434 15.48 143.936 13.6196 142.954 12.3013C141.973 10.9829 140.464 10.3237 138.428 10.3237C137.446 10.3237 136.567 10.5215 135.791 10.917C135.015 11.3125 134.37 11.8618 133.857 12.5649C133.359 13.2681 132.964 14.0664 132.671 14.96C132.378 15.8535 132.188 16.8276 132.1 17.8823H144.448ZM167.388 19.0688C167.388 17.6333 167.234 16.3735 166.926 15.2896C166.619 14.1909 166.238 13.3413 165.784 12.7407C165.344 12.1255 164.81 11.6348 164.18 11.2686C163.564 10.8877 162.986 10.6387 162.444 10.5215C161.917 10.4043 161.367 10.3457 160.796 10.3457C159.727 10.3457 158.782 10.6021 157.961 11.1147C157.141 11.6128 156.489 12.2939 156.006 13.1582C155.537 14.0225 155.186 14.9746 154.951 16.0146C154.717 17.0547 154.6 18.168 154.6 19.3545C154.6 22.5039 155.142 24.9355 156.226 26.6494C157.324 28.3633 158.811 29.2202 160.686 29.2202C161.345 29.2202 161.96 29.1543 162.532 29.0225C163.103 28.876 163.696 28.5977 164.312 28.1875C164.927 27.7773 165.447 27.2427 165.872 26.5835C166.311 25.9097 166.67 24.9941 166.948 23.8369C167.241 22.6797 167.388 21.3394 167.388 19.8159V19.0688ZM160.994 40.4263C157.097 40.4263 154.438 39.2397 153.018 36.8667L154.841 35.1309C156.042 37.0645 158.145 38.0312 161.147 38.0312C163.242 38.0312 164.802 37.3647 165.828 36.0317C166.868 34.6987 167.388 32.8164 167.388 30.3848V28.1436C165.674 30.3994 163.403 31.5273 160.576 31.5273C157.705 31.5273 155.471 30.4214 153.875 28.2095C152.278 25.9829 151.479 23.0605 151.479 19.4424C151.479 17.2305 151.809 15.2822 152.468 13.5977C153.142 11.8984 154.16 10.5508 155.522 9.55469C156.885 8.55859 158.525 8.06055 160.444 8.06055C163.359 8.06055 165.754 9.18115 167.629 11.4224L167.805 8.52197H170.31V30.5605C170.31 33.4756 169.504 35.8486 167.893 37.6797C166.296 39.5107 163.997 40.4263 160.994 40.4263Z" fill="#16DC05"/>
</svg>
